<svg xmlns="http://www.w3.org/2000/svg" width="1200" height="620" viewBox="0 0 1200 620" role="img" aria-labelledby="t"><title id="t">Paisaje de Yunnan con montañas y cielo</title><defs><linearGradient id="sky" x1="0" y1="0" x2="0" y2="1"><stop offset="0" stop-color="#dff6ff"/><stop offset="1" stop-color="#fff4df"/></linearGradient><linearGradient id="mount" x1="0" y1="0" x2="1" y2="1"><stop offset="0" stop-color="#2563eb"/><stop offset="1" stop-color="#065f46"/></linearGradient></defs><rect width="1200" height="620" fill="url(#sky)"/><circle cx="950" cy="120" r="64" fill="#ffd166" opacity=".9"/><path d="M0 420 L180 210 L340 410 L520 160 L760 430 L970 190 L1200 420 L1200 620 L0 620 Z" fill="url(#mount)" opacity=".72"/><path d="M0 500 C220 430 320 545 520 470 C790 365 820 520 1200 440 L1200 620 L0 620 Z" fill="#fff" opacity=".82"/><path d="M200 510 C410 480 550 555 760 505 C900 472 980 510 1080 480" fill="none" stroke="#c8102e" stroke-width="14" stroke-linecap="round" opacity=".45"/><g transform="translate(720 225)"><path d="M0 30 l170 -70 -35 70 35 70z" fill="#c8102e"/><path d="M0 30 l170 -70 -90 85z" fill="#ffffff" opacity=".85"/></g></svg>